<svg id="visual" viewBox="0 0 900 200" width="900" height="200" xmlns="http://www.w3.org/2000/svg" xmlns:xlink="http://www.w3.org/1999/xlink" version="1.1"><rect x="0" y="0" width="900" height="200" fill="#f4e1e0"></rect><path d="M0 70L16.7 68.3C33.3 66.7 66.7 63.3 100 74.5C133.3 85.7 166.7 111.3 200 110.2C233.3 109 266.7 81 300 68.2C333.3 55.3 366.7 57.7 400 73.3C433.3 89 466.7 118 500 116.7C533.3 115.3 566.7 83.7 600 83C633.3 82.3 666.7 112.7 700 127.5C733.3 142.3 766.7 141.7 800 132.7C833.3 123.7 866.7 106.3 883.3 97.7L900 89L900 201L883.3 201C866.7 201 833.3 201 800 201C766.7 201 733.3 201 700 201C666.7 201 633.3 201 600 201C566.7 201 533.3 201 500 201C466.7 201 433.3 201 400 201C366.7 201 333.3 201 300 201C266.7 201 233.3 201 200 201C166.7 201 133.3 201 100 201C66.7 201 33.3 201 16.7 201L0 201Z" fill="#6e484b" stroke-linecap="round" stroke-linejoin="miter"></path></svg>