<svg id="visual" viewBox="0 0 900 200" width="900" height="200" xmlns="http://www.w3.org/2000/svg" xmlns:xlink="http://www.w3.org/1999/xlink" version="1.1"><rect x="0" y="0" width="900" height="200" fill="#f4e1e0"></rect><path d="M0 55L13.7 63.3C27.3 71.7 54.7 88.3 82 90.3C109.3 92.3 136.7 79.7 163.8 79.5C191 79.3 218 91.7 245.2 103.5C272.3 115.3 299.7 126.7 327 123.5C354.3 120.3 381.7 102.7 409 88C436.3 73.3 463.7 61.7 491 67.5C518.3 73.3 545.7 96.7 573 110.3C600.3 124 627.7 128 654.8 117.2C682 106.3 709 80.7 736.2 79C763.3 77.3 790.7 99.7 818 106.7C845.3 113.7 872.7 105.3 886.3 101.2L900 97L900 201L886.3 201C872.7 201 845.3 201 818 201C790.7 201 763.3 201 736.2 201C709 201 682 201 654.8 201C627.7 201 600.3 201 573 201C545.7 201 518.3 201 491 201C463.7 201 436.3 201 409 201C381.7 201 354.3 201 327 201C299.7 201 272.3 201 245.2 201C218 201 191 201 163.8 201C136.7 201 109.3 201 82 201C54.7 201 27.3 201 13.7 201L0 201Z" fill="#bd8e89" stroke-linecap="round" stroke-linejoin="miter"></path></svg>